<?xml version="1.0" standalone="no"?><!DOCTYPE svg PUBLIC "-//W3C//DTD SVG 1.1//EN" "http://www.w3.org/Graphics/SVG/1.1/DTD/svg11.dtd"><svg t="1750946940678" class="icon" viewBox="0 0 1024 1024" version="1.1" xmlns="http://www.w3.org/2000/svg" p-id="1477" xmlns:xlink="http://www.w3.org/1999/xlink" width="16" height="16"><path d="M223.232 651.093333c25.045333 0 45.568-6.613333 61.653333-19.84 16.042667-13.226667 25.770667-32.426667 29.184-57.685333H264.064c-1.706667 11.776-5.888 21.12-12.586667 28.117333-6.656 6.954667-16.213333 10.453333-28.586666 10.453334a36.394667 36.394667 0 0 1-20.48-5.504 41.045333 41.045333 0 0 1-13.312-14.165334 65.066667 65.066667 0 0 1-7.125334-19.285333 103.893333 103.893333 0 0 1 0-42.410667c1.493333-7.253333 3.968-13.824 7.509334-19.84 3.498667-5.973333 8.106667-10.88 13.653333-14.677333a36.181333 36.181333 0 0 1 20.821333-5.717333c22.101333 0 34.901333 10.922667 38.314667 32.682666h50.688a71.850667 71.850667 0 0 0-8.746667-31.744 71.594667 71.594667 0 0 0-19.882666-22.442666 85.930667 85.930667 0 0 0-27.733334-13.397334 117.461333 117.461333 0 0 0-32.298666-4.394666c-15.317333 0-28.928 2.56-40.832 7.68-11.946667 5.162667-22.016 12.330667-30.293334 21.504-8.277333 9.216-14.506667 20.096-18.773333 32.725333-4.266667 12.586667-6.4 26.24-6.4 40.96 0 14.208 2.304 27.221333 6.912 39.125333 4.650667 11.861333 11.093333 22.101333 19.370667 30.677334 8.234667 8.533333 18.304 15.232 30.08 20.010666 11.776 4.778667 24.746667 7.168 38.826666 7.168z m192.64 1.109334c34.773333 0 61.994667-8.661333 81.706667-25.898667 19.712-17.28 29.525333-43.690667 29.525333-79.189333V384h-57.258667v163.114667c0 19.626667-3.882667 34.005333-11.690666 43.178666-7.765333 9.173333-21.888 13.781333-42.282667 13.781334-11.690667 0-20.992-1.664-27.946667-4.992a42.325333 42.325333 0 0 1-16.213333-12.8 42.666667 42.666667 0 0 1-7.68-18.218667 119.722667 119.722667 0 0 1-1.792-20.906667V384H304.938667v163.114667c0 35.754667 9.685333 62.208 29.013333 79.36 19.328 17.152 46.634667 25.728 81.92 25.728z m175.104-5.888v-102.485334h57.301333c14.336 0 24.661333 3.157333 30.976 9.514667 6.357333 6.4 10.453333 16.426667 12.416 30.165333 1.450667 10.496 2.56 21.546667 3.285334 33.024 0.725333 11.52 2.688 21.461333 5.845333 29.781334h57.258667a38.741333 38.741333 0 0 1-5.973334-13.397334 116.565333 116.565333 0 0 1-2.986666-16.725333 289.024 289.024 0 0 1-1.28-17.28 984.746667 984.746667 0 0 0-0.682667-14.677333 158.72 158.72 0 0 0-2.730667-19.84 66.986667 66.986667 0 0 0-6.4-18.176 49.834667 49.834667 0 0 0-11.306666-14.336 44.074667 44.074667 0 0 0-17.493334-9.002667v-0.725333c14.549333-5.888 25.088-14.506667 31.573334-25.728 6.4-11.264 9.642667-24.618667 9.642666-40.064 0-10.026667-1.792-19.413333-5.290666-28.074667a67.84 67.84 0 0 0-15.36-22.997333 72.576 72.576 0 0 0-24.064-15.616A83.328 83.328 0 0 0 674.133333 384H533.76v262.314667h57.258667z m62.72-143.658667h-62.72v-73.813333h62.72c13.184 0 23.04 2.858667 29.568 8.618666 6.570667 5.76 9.856 14.976 9.856 27.733334 0 13.226667-3.285333 22.784-9.813333 28.672-6.613333 5.845333-16.426667 8.789333-29.568 8.789333zM938.666667 646.314667V597.76h-126.976V384h-57.258667v262.314667H938.666667z" p-id="1478" fill="#afb1b3"></path></svg>