<svg t="1751039033212" class="icon" viewBox="0 0 1024 1024" version="1.1" xmlns="http://www.w3.org/2000/svg" p-id="7231" width="16" height="16"><path d="M778.638222 533.333333V394.638222h-138.695111c-20.593778 0-38.229333-7.281778-52.792889-21.845333a71.964444 71.964444 0 0 1-21.845333-52.792889V181.304889H298.609778c-35.555556 0-53.304889 17.806222-53.304889 53.361778v298.666666a32.028444 32.028444 0 0 1-64 0v-298.666666c0-32.426667 11.434667-60.074667 34.360889-82.944a113.038222 113.038222 0 0 1 82.944-34.417778h298.666666c8.533333 0 16.611556 3.413333 22.641778 9.386667l213.333334 213.333333 0.341333 0.341333a32.028444 32.028444 0 0 1 9.045333 22.300445v170.666666a31.971556 31.971556 0 1 1-64 0z m-149.333333-213.333333a10.24 10.24 0 0 0 3.128889 7.566222 10.24 10.24 0 0 0 7.509333 3.072h93.411556l-104.106667-104.049778v93.411556z m-120.604445 477.240889c0 18.488889-4.380444 34.588444-13.141333 48.298667a87.04 87.04 0 0 1-36.864 31.744 126.748444 126.748444 0 0 1-54.897778 11.207111c-21.105778 0-39.537778-3.754667-55.296-11.207111a86.186667 86.186667 0 0 1-36.750222-31.744 87.950222 87.950222 0 0 1-13.084444-48.355556v-181.475556h60.017777v176.298667c0 8.533333 1.877333 16.213333 5.688889 22.926222a40.391111 40.391111 0 0 0 15.758223 15.758223c6.826667 3.754667 14.677333 5.688889 23.665777 5.688888a47.274667 47.274667 0 0 0 23.552-5.688888 40.96 40.96 0 0 0 15.815111-15.758223 45.681778 45.681778 0 0 0 5.688889-22.926222v-176.241778h59.904v181.475556z m140.174223-181.475556c18.602667 0 34.645333 3.299556 48.184889 10.012445 13.539556 6.656 23.950222 16.156444 31.288888 28.558222 7.395556 12.458667 11.093333 27.136 11.093334 44.088889 0 17.237333-3.811556 31.857778-11.320889 43.804444-7.509333 12.003556-18.204444 21.162667-31.971556 27.420445l-1.137777 0.455111 52.906666 115.2h-65.422222l-47.843556-106.268445h-28.330666v106.268445H546.304v-269.539556h102.570667z m-42.552889 115.996445h29.582222c9.045333 0 16.611556-1.194667 22.755556-3.584a28.103111 28.103111 0 0 0 13.824-10.922667 34.190222 34.190222 0 0 0 4.721777-18.830222 35.498667 35.498667 0 0 0-4.721777-19.114667 28.899556 28.899556 0 0 0-13.937778-11.377778 59.335111 59.335111 0 0 0-22.641778-3.811555h-29.582222v67.640889z m225.962666-116.053334v220.899556h103.253334v48.753778h-163.271111v-269.653334h60.017777zM98.986667 843.036444a106.951111 106.951111 0 0 1-11.264-50.119111c0-19.057778 3.754667-35.84 11.377777-50.232889 7.509333-14.449778 18.318222-25.713778 32.312889-33.792a98.986667 98.986667 0 0 1 50.232889-12.117333c17.237333 0 32.256 3.128889 45.056 9.329778 12.8 6.257778 22.812444 15.018667 30.037334 26.396444s11.036444 24.632889 11.491555 39.936h-55.409778a37.319111 37.319111 0 0 0-9.671111-22.471111 27.648 27.648 0 0 0-20.650666-8.078222 29.468444 29.468444 0 0 0-18.033778 5.745778 36.864 36.864 0 0 0-12.060445 16.952889c-2.844444 7.509333-4.323556 16.725333-4.323555 27.704889s1.422222 20.252444 4.323555 27.875555c2.844444 7.509333 6.826667 13.198222 12.060445 17.066667 5.12 3.811556 11.150222 5.688889 18.033778 5.688889 5.518222 0 10.353778-1.137778 14.620444-3.470223a27.932444 27.932444 0 0 0 10.467556-10.353777 40.789333 40.789333 0 0 0 5.233777-16.668445h55.409778c-0.568889 15.36-4.380444 28.785778-11.491555 40.220445a71.452444 71.452444 0 0 1-29.696 26.737777 100.408889 100.408889 0 0 1-45.283556 9.500445c-19.626667 0-36.408889-3.982222-50.460444-12.117333a81.749333 81.749333 0 0 1-32.312889-33.735112z" p-id="7232"></path></svg>