<?xml version="1.0" standalone="no"?><!DOCTYPE svg PUBLIC "-//W3C//DTD SVG 1.1//EN" "http://www.w3.org/Graphics/SVG/1.1/DTD/svg11.dtd"><svg t="1719756616090" class="icon" viewBox="0 0 1024 1024" version="1.1" xmlns="http://www.w3.org/2000/svg" p-id="8154" width="16" height="16" xmlns:xlink="http://www.w3.org/1999/xlink"><path d="M512 512m-512 0a512 512 0 1 0 1024 0 512 512 0 1 0-1024 0Z" fill="#3e86a0" p-id="8155" data-spm-anchor-id="a313x.search_index.0.i4.2fd13a818CpfK2" class=""></path><path d="M526.262857 772.754286a260.754286 260.754286 0 1 1 119.954286-492.251429 45.714286 45.714286 0 0 1-42.057143 81.188572 169.691429 169.691429 0 0 0-113.005714-15.36 169.325714 169.325714 0 0 0-92.525715 277.211428 172.617143 172.617143 0 0 0 205.531429 38.765714 45.714286 45.714286 0 0 1 42.057143 81.188572 264.045714 264.045714 0 0 1-119.954286 29.257143z" fill="#2f4c5f" p-id="8156" data-spm-anchor-id="a313x.search_index.0.i5.2fd13a818CpfK2" class="selected"></path></svg>