<svg t="1751039274154" class="icon" viewBox="0 0 1280 1024" version="1.1" xmlns="http://www.w3.org/2000/svg" p-id="14652" width="16" height="16"><path d="M384 0C313.770667 0 256 57.770667 256 128V512h85.333333V128c0-23.978667 18.688-42.666667 42.666667-42.666667H768v256h256v170.666667h85.333333V281.002667L828.330667 0H384zM853.333333 145.664L963.669333 256H853.333333V145.664zM170.666667 597.333333v298.666667c0 23.978667-18.688 42.666667-42.666667 42.666667a42.069333 42.069333 0 0 1-42.666667-42.666667V853.333333H0v42.666667c0 70.229333 57.770667 128 128 128S256 966.229333 256 896V597.333333H170.666667z m298.666666 0c-50.346667 0-79.786667 20.309333-95.658666 37.546667-35.072 37.717333-32.426667 88.064-32.170667 90.453333 0 68.949333 62.634667 100.010667 108.458667 122.88 36.352 17.92 62.037333 31.914667 62.037333 48.469334 0 0.170667-0.853333 20.821333-11.946667 32.170666-2.56 2.474667-9.642667 9.813333-30.72 9.813334H349.184c5.12 16.298667 13.312 34.389333 28.842667 50.176 15.786667 16.042667 44.458667 35.157333 91.306666 35.157333s75.605333-19.2 91.477334-35.328c36.352-36.949333 36.437333-87.722667 36.352-92.672 0-69.973333-63.146667-101.376-109.312-124.330667-35.84-17.749333-60.928-31.573333-61.013334-48.981333 0-0.170667-0.768-19.370667 9.472-30.037333C442.624 686.08 453.802667 682.666667 469.333333 682.666667h120.661334c-14.336-42.922667-51.029333-85.333333-120.661334-85.333334z m341.333334 0C740.437333 597.333333 682.666667 655.104 682.666667 725.333333v170.666667c0 70.229333 57.770667 128 128 128s128-57.770667 128-128v-170.666667c0-70.229333-57.770667-128-128-128zM1024 597.333333v426.666667h85.333333V798.464L1194.666667 1024h85.333333V597.333333h-85.333333v225.536L1109.333333 597.333333h-85.333333zM810.666667 682.666667c23.978667 0 42.666667 18.688 42.666666 42.666666v170.666667c0 23.978667-18.688 42.666667-42.666666 42.666667a42.069333 42.069333 0 0 1-42.666667-42.666667v-170.666667c0-23.978667 18.688-42.666667 42.666667-42.666666z" fill="#000000" p-id="14653"></path></svg>