<?xml version="1.0" standalone="no"?><!DOCTYPE svg PUBLIC "-//W3C//DTD SVG 1.1//EN" "http://www.w3.org/Graphics/SVG/1.1/DTD/svg11.dtd"><svg t="1716712217407" class="icon" viewBox="0 0 1024 1024" version="1.1" xmlns="http://www.w3.org/2000/svg" p-id="7319" width="16" height="16" xmlns:xlink="http://www.w3.org/1999/xlink"><path d="M352 224h-64a64 64 0 0 0-64 64v128a64 64 0 0 1-64 64H128v64h32a64 64 0 0 1 64 64v128c0 35.2 29.76 55.36 64 64h64v-64h-64V576a64 64 0 0 0-64-64 64 64 0 0 0 64-64V288h64v-64z m448 64a64 64 0 0 0-64-64h-64v64h64V448a64 64 0 0 0 64 64 64 64 0 0 0-64 64v160h-64v64h64a64 64 0 0 0 64-64v-128a64 64 0 0 1 64-64h32v-64h-32a64 64 0 0 1-64-64v-128z" fill="#afb1b3" p-id="7320"></path></svg>